#!OML:ASF X:\für Bonn\!DataBase\2005_08_10_Bjorn_Final\c3d\bjorn.ASF
:FULLY-SPECIFIED
:DEGREES
76
root -21.4791 19.4476 0.171895 -226.591 -88.6739 -128.386
lowerback -13.0232 5.51481 -4.04425
upperback 3.08959 8.6526 -7.54103
thorax 11.3419 4.07 -4.03045
lowerneck -0.740468 -7.19413 5.60559
upperneck 3.04378 -9.59003 -4.00066
head 0.593724 -4.77957 -2.23197
rclavicle -1.51076e-014 -1.59028e-014
rhumerus 43.3166 6.50619 -37.188
rradius 52.5234
rwrist -27.4085
rhand -5.92014 3.8087
rfingers 7.12502
rthumb 19.9091 -25.1915
lclavicle -1.51076e-014 -1.59028e-014
lhumerus -23.6398 21.6747 72.8666
lradius 15.0474
lwrist -45.6708
lhand -17.0198 -6.29319
lfingers 7.12502
lthumb 9.21619 23.4854
rfemur -13.0157 -14.9815 17.892
rtibia 25.2291
rfoot -7.93411 21.3448
rtoes 6.0771
lfemur -11.6113 15.9741 -16.242
ltibia 24.1121
lfoot -9.12193 -16.4343
ltoes 1.74881
77
root -21.4774 19.4474 0.169972 -228.062 -88.6799 -126.93
lowerback -13.0469 5.59055 -4.0334
upperback 3.09808 8.75989 -7.59901
thorax 11.385 4.12283 -4.07366
lowerneck -0.823721 -7.25187 5.67264
upperneck 3.17898 -9.67356 -3.89093
head 0.648806 -4.81904 -2.21546
rclavicle -3.4191e-014 -9.54166e-015
rhumerus 43.8987 6.78161 -36.3309
rradius 51.6299
rwrist -27.6326
rhand -4.86736 3.16934
rfingers 7.12502
rthumb 20.9208 -25.7225
lclavicle -3.4191e-014 -9.54166e-015
lhumerus -23.4828 21.342 72.8952
lradius 15.0577
lwrist -45.4425
lhand -17.1298 -6.31721
lfingers 7.12502
lthumb 9.11005 23.466
rfemur -13.0072 -15.0291 17.9138
rtibia 25.2402
rfoot -7.94876 21.367
rtoes 5.9917
lfemur -11.6077 15.9352 -16.218
ltibia 24.1211
lfoot -9.16749 -16.4001
ltoes 1.52665
78
root -21.476 19.4471 0.167538 -229.4 -88.6994 -125.614
lowerback -13.0487 5.66716 -4.02833
upperback 3.09841 8.86693 -7.6674
thorax 11.4073 4.17591 -4.12708
lowerneck -0.899156 -7.3061 5.77018
upperneck 3.31664 -9.75294 -3.79094
head 0.701666 -4.85594 -2.20717
rclavicle 4.49253e-014 -2.22639e-014
rhumerus 44.3769 7.01803 -35.62
rradius 50.862
rwrist -27.7951
rhand -3.796 2.55268
rfingers 7.12502
rthumb 21.9498 -26.222
lclavicle 4.49253e-014 -2.22639e-014
lhumerus -23.3629 21.0725 72.884
lradius 15.0776
lwrist -45.2974
lhand -17.2648 -6.38905
lfingers 7.12502
lthumb 8.97987 23.3998
rfemur -12.9832 -15.006 17.9201
rtibia 25.2489
rfoot -7.98852 21.3116
rtoes 5.94535
lfemur -11.5943 15.8892 -16.2014
ltibia 24.1293
lfoot -9.17285 -16.378
ltoes 1.58921
79
root -21.4747 19.4461 0.16558 -231.765 -88.717 -123.271
lowerback -13.0619 5.73612 -4.01296
upperback 3.10847 8.96402 -7.73108
thorax 11.4478 4.22457 -4.18218
lowerneck -0.989054 -7.35874 5.87787
upperneck 3.45631 -9.83211 -3.68357
head 0.757608 -4.89239 -2.19917
rclavicle 8.74653e-015 0
rhumerus 44.8112 7.19918 -35.0567
rradius 50.1538
rwrist -27.8838
rhand -2.64773 2.00623
rfingers 7.12502
rthumb 23.052 -26.635
lclavicle 8.74653e-015 0
lhumerus -23.2535 20.8354 72.8565
lradius 15.1133
lwrist -45.1664
lhand -17.3191 -6.30797
lfingers 7.12502
lthumb 8.92744 23.4832
rfemur -12.9618 -15.0106 17.9409
rtibia 25.2568
rfoot -8.01518 21.2689
rtoes 5.83938
lfemur -11.5808 15.8285 -16.1738
ltibia 24.1407
lfoot -9.21563 -16.3489
ltoes 1.3948
80
root -21.4736 19.4457 0.163517 -234.049 -88.7476 -121.01
lowerback -13.0709 5.79427 -4.02335
upperback 3.12139 9.04951 -7.78126
thorax 11.4819 4.26541 -4.21119
lowerneck -1.08287 -7.40504 5.9692
upperneck 3.59332 -9.90266 -3.6029
head 0.813297 -4.92487 -2.19727
rclavicle 2.38542e-015 4.77083e-014
rhumerus 45.1993 7.37768 -34.5471
rradius 49.5408
rwrist -27.9421
rhand -1.4628 1.4697
rfingers 7.12502
rthumb 24.1885 -27.025
lclavicle 2.38542e-015 4.77083e-014
lhumerus -23.1331 20.5367 72.878
lradius 15.1307
lwrist -44.8984
lhand -17.388 -6.18099
lfingers 7.12502
lthumb 8.86093 23.613
rfemur -12.94 -15.0763 17.9444
rtibia 25.2662
rfoot -8.01949 21.2777
rtoes 5.81917
lfemur -11.5705 15.7595 -16.1596
ltibia 24.1482
lfoot -9.22404 -16.3245
ltoes 1.35682
81
root -21.4727 19.4452 0.161175 -236.881 -88.7638 -118.199
lowerback -13.0709 5.85558 -4.03119
upperback 3.12052 9.13614 -7.82495
thorax 11.4941 4.30723 -4.23498
lowerneck -1.18793 -7.45405 6.05694
upperneck 3.77911 -9.97793 -3.51754
head 0.886641 -4.95905 -2.19558
rclavicle -5.4467e-014 -7.63333e-014
rhumerus 45.5154 7.57469 -34.0794
rradius 49.0029
rwrist -28.0865
rhand -0.316385 0.950084
rfingers 7.12502
rthumb 25.2873 -27.3939
lclavicle -5.4467e-014 -7.63333e-014
lhumerus -23.0633 20.3158 72.8632
lradius 15.1594
lwrist -44.7733
lhand -17.4467 -6.08152
lfingers 7.12502
lthumb 8.80428 23.7148
rfemur -12.9121 -15.0712 17.9662
rtibia 25.2738
rfoot -8.06219 21.2173
rtoes 5.77423
lfemur -11.5581 15.6916 -16.1302
ltibia 24.1599
lfoot -9.28697 -16.2942
ltoes 1.13636
82
root -21.4718 19.445 0.158747 -239.613 -88.8116 -115.482
lowerback -13.0855 5.90825 -4.06296
upperback 3.12689 9.21796 -7.8848
thorax 11.5225 4.34497 -4.26345
lowerneck -1.29142 -7.50079 6.15797
upperneck 3.95385 -10.0516 -3.42356
head 0.956238 -4.99195 -2.19316
rclavicle -3.65764e-014 -5.40694e-014
rhumerus 45.7887 7.76159 -33.6395
rradius 48.5382
rwrist -28.3373
rhand 0.805056 0.49563
rfingers 7.12502
rthumb 26.3612 -27.692
lclavicle -3.65764e-014 -5.40694e-014
lhumerus -22.9782 20.135 72.8238
lradius 15.1691
lwrist -44.656
lhand -17.5136 -6.00852
lfingers 7.12502
lthumb 8.73972 23.7905
rfemur -12.89 -15.0503 17.9567
rtibia 25.2789
rfoot -8.13231 21.1305
rtoes 5.61615
lfemur -11.5597 15.6088 -16.1353
ltibia 24.1695
lfoot -9.28954 -16.2718
ltoes 1.13255
83
root -21.4711 19.4445 0.156261 -243.301 -88.8279 -111.817
lowerback -13.0967 5.94508 -4.08811
upperback 3.13859 9.27522 -7.90494
thorax 11.5464 4.37041 -4.25743
lowerneck -1.40553 -7.52634 6.20628
upperneck 4.13642 -10.0968 -3.33416
head 1.03403 -5.01106 -2.18455
rclavicle -2.70347e-014 1.27222e-014
rhumerus 46.071 7.96302 -33.23
rradius 48.1161
rwrist -28.6055
rhand 1.89865 0.243045
rfingers 7.12502
rthumb 27.4077 -27.7835
lclavicle -2.70347e-014 1.27222e-014
lhumerus -22.914 19.9994 72.8071
lradius 15.1759
lwrist -44.5002
lhand -17.5566 -5.90905
lfingers 7.12502
lthumb 8.69821 23.8917
rfemur -12.8555 -15.0263 17.9791
rtibia 25.2826
rfoot -8.17516 21.0361
rtoes 5.56385
lfemur -11.5517 15.5252 -16.1064
ltibia 24.1809
lfoot -9.32239 -16.2352
ltoes 0.96236
84
root -21.4705 19.4442 0.153432 -247.075 -88.8577 -108.067
lowerback -13.1013 5.97861 -4.13812
upperback 3.14933 9.33124 -7.9288
thorax 11.5619 4.39355 -4.24282
lowerneck -1.53999 -7.55773 6.29649
upperneck 4.33754 -10.1517 -3.28051
head 1.11705 -5.03461 -2.19625
rclavicle 1.74931e-014 -5.08889e-014
rhumerus 46.3131 8.21064 -32.7987
rradius 47.7332
rwrist -28.8129
rhand 2.75092 0.371739
rfingers 7.12502
rthumb 28.2225 -27.5231
lclavicle 1.74931e-014 -5.08889e-014
lhumerus -22.8676 19.9956 72.755
lradius 15.1724
lwrist -44.4951
lhand -17.5918 -5.80374
lfingers 7.12502
lthumb 8.6643 23.9985
rfemur -12.8219 -14.9408 17.9863
rtibia 25.2879
rfoot -8.27953 20.8798
rtoes 5.36959
lfemur -11.538 15.436 -16.0901
ltibia 24.1881
lfoot -9.33487 -16.2325
ltoes 0.922909
85
root -21.4706 19.4438 0.151458 -250.366 -88.8774 -104.791
lowerback -13.1219 6.01256 -4.19009
upperback 3.15277 9.38831 -7.94279
thorax 11.5762 4.4166 -4.21462
lowerneck -1.6509 -7.58321 6.34036
upperneck 4.55755 -10.198 -3.19068
head 1.20683 -5.0533 -2.18835
rclavicle 8.90555e-014 2.54444e-014
rhumerus 46.5237 8.51077 -32.3586
rradius 47.3894
rwrist -28.8862
rhand 3.40218 0.648863
rfingers 7.12502
rthumb 28.8448 -27.1415
lclavicle 8.90555e-014 2.54444e-014
lhumerus -22.8417 19.9004 72.7231
lradius 15.1612
lwrist -44.3272
lhand -17.6333 -5.72313
lfingers 7.12502
lthumb 8.62425 24.0807
rfemur -12.7968 -14.939 17.9902
rtibia 25.2906
rfoot -8.32078 20.8145
rtoes 5.32269
lfemur -11.5352 15.3575 -16.0833
ltibia 24.1976
lfoot -9.3697 -16.1937
ltoes 0.744474
86
root -21.4704 19.4433 0.148746 -254.465 -88.8963 -100.715
lowerback -13.139 6.0303 -4.26595
upperback 3.16291 9.42647 -7.94022
thorax 11.5873 4.42826 -4.15974
lowerneck -1.76587 -7.6031 6.39497
upperneck 4.77291 -10.2364 -3.14141
head 1.29382 -5.06842 -2.19549
rclavicle -3.33958e-014 -1.59028e-014
rhumerus 46.719 8.86152 -31.8667
rradius 47.1434
rwrist -28.8265
rhand 3.83653 0.884067
rfingers 7.12502
rthumb 29.2596 -26.8347
lclavicle -3.33958e-014 -1.59028e-014
lhumerus -22.822 19.9774 72.6532
lradius 15.1193
lwrist -44.2562
lhand -17.6424 -5.69399
lfingers 7.12502
lthumb 8.61547 24.1102
rfemur -12.7609 -14.9184 17.9957
rtibia 25.2942
rfoot -8.38128 20.7183
rtoes 5.25645
lfemur -11.5208 15.2681 -16.0663
ltibia 24.2046
lfoot -9.39034 -16.1758
ltoes 0.65498
